<svg width="468" height="346" viewBox="0 0 468 346" fill="none" xmlns="http://www.w3.org/2000/svg">
<path d="M227.834 335.971L33.9301 223.498C27.7525 220.055 22.4641 214.512 28.4779 210.873L223.084 100.811C226.009 99.032 230.443 97.8729 233.403 99.56L436.983 215.476C443.161 218.988 444.261 228.823 438.083 232.335L253.399 335.752C249.526 337.97 245.13 339.157 240.646 339.195C236.162 339.233 231.746 338.122 227.834 335.971Z" fill="#A6BFDB"/>
<path opacity="0.48" d="M82.5552 206.857L41.301 226.505C47.3692 230.484 53.7775 233.94 60.4539 236.834L102.48 209.347" fill="url(#paint0_linear_60_3)"/>
<path opacity="0.48" d="M269.989 204.906C259.155 198.18 248.333 191.386 238.247 183.639L181.76 215.384L240.26 260.143C246.975 255.977 282.099 238.716 302.363 228.146V225.851C291.576 218.907 280.929 211.688 269.989 204.906Z" fill="url(#paint1_linear_60_3)"/>
<path d="M249.912 109.373C249.819 108.928 249.627 108.51 249.35 108.146C249.073 107.783 248.718 107.485 248.309 107.272C247.939 107.072 247.504 107.018 247.095 107.123C246.685 107.227 246.333 107.482 246.11 107.835C245.927 108.189 245.869 108.593 245.946 108.982V108.982C245.813 109.548 245.829 110.136 245.99 110.694C246.152 111.252 246.455 111.761 246.87 112.173C247.022 112.327 247.203 112.45 247.404 112.533C247.605 112.617 247.822 112.66 248.04 112.66C248.258 112.66 248.475 112.617 248.676 112.533C248.877 112.45 249.058 112.327 249.21 112.173C249.541 111.792 249.776 111.34 249.898 110.854C250.02 110.368 250.025 109.861 249.912 109.373V109.373Z" fill="#5A2500"/>
<path d="M300.105 57.75L238.856 22.2637C237.958 21.8135 236.977 21.5467 235.971 21.4796C234.966 21.4125 233.957 21.5465 233.006 21.8735H232.912C232.462 22.0214 232.028 22.2097 231.613 22.4359L225.81 24.9493L228.911 26.2921L230.818 180.081C230.817 182.789 231.541 185.45 232.916 187.799C234.292 190.147 236.271 192.1 238.657 193.463L295.764 226.103L294.875 231.36L302.621 227.343C303.371 226.939 303.997 226.345 304.431 225.622C304.866 224.898 305.093 224.073 305.089 223.234V66.3232C305.09 64.5924 304.631 62.8912 303.757 61.3877C302.883 59.8842 301.624 58.6304 300.105 57.75Z" fill="#68E1FD"/>
<path opacity="0.33" d="M300.105 57.75L238.856 22.2637C237.958 21.8135 236.977 21.5467 235.971 21.4796C234.966 21.4125 233.957 21.5465 233.006 21.8735H232.912C232.462 22.0214 232.028 22.2097 231.613 22.4359L225.81 24.9493L228.911 26.2921L230.818 180.081C230.817 182.789 231.541 185.45 232.916 187.799C234.292 190.147 236.271 192.1 238.657 193.463L295.764 226.103L294.875 231.36L302.621 227.343C303.371 226.939 303.997 226.345 304.431 225.622C304.866 224.898 305.093 224.073 305.089 223.234V66.3232C305.09 64.5924 304.631 62.8912 303.757 61.3877C302.883 59.8842 301.624 58.6304 300.105 57.75Z" fill="#3F3D56"/>
<path d="M290.464 231.107L231.25 197.262C228.865 195.899 226.885 193.946 225.51 191.597C224.134 189.249 223.411 186.588 223.411 183.88V28.6793C223.409 27.9523 223.603 27.2376 223.974 26.6081C224.344 25.9787 224.879 25.4571 225.523 25.0965C226.166 24.7359 226.896 24.5493 227.637 24.5557C228.378 24.5621 229.104 24.7613 229.741 25.1329L292.687 61.6062C294.206 62.4866 295.465 63.7404 296.339 65.2439C297.213 66.7474 297.672 68.4486 297.671 70.1794V227.044C297.67 227.871 297.447 228.683 297.025 229.398C296.602 230.113 295.995 230.707 295.264 231.118C294.534 231.53 293.705 231.746 292.863 231.744C292.02 231.742 291.193 231.522 290.464 231.107V231.107Z" fill="#F4F4F4"/>
<path d="M293.916 79.6592L226.454 41.7054V177.487L293.916 215.74V79.6592Z" fill="#054F70"/>
<path d="M254.882 206.249C256.554 205.858 257.473 203.746 256.934 201.533C256.395 199.319 254.603 197.843 252.931 198.234C251.26 198.626 250.341 200.737 250.88 202.951C251.419 205.164 253.211 206.641 254.882 206.249Z" fill="#BABABC"/>
<path d="M251.386 48.2357C251.386 48.4967 251.457 48.7531 251.59 48.9788C251.724 49.2046 251.916 49.3917 252.147 49.5211L265.181 56.8663C265.41 56.9949 265.67 57.0622 265.934 57.0613C266.199 57.0605 266.458 56.9915 266.687 56.8614C266.916 56.7312 267.105 56.5444 267.237 56.3197C267.369 56.095 267.439 55.8402 267.439 55.5809V55.271C267.438 55.0058 267.365 54.7455 267.228 54.5174C267.09 54.2892 266.892 54.1016 266.655 53.9741L253.621 46.9389C253.391 46.8154 253.133 46.7526 252.871 46.7569C252.609 46.7611 252.352 46.8321 252.127 46.9629C251.902 47.0938 251.715 47.28 251.585 47.5031C251.455 47.7263 251.386 47.9788 251.386 48.2357V48.2357Z" fill="#CCCCCC"/>
<path d="M246.764 45.5667C247.529 45.2872 247.834 44.2298 247.445 43.205C247.056 42.1802 246.12 41.576 245.355 41.8555C244.59 42.1351 244.285 43.1924 244.674 44.2172C245.063 45.2421 245.998 45.8462 246.764 45.5667Z" fill="#CCCCCC"/>
<path d="M422.078 257.435L420.908 256.861C420.241 256.528 419.644 257.527 420.323 257.848L421.493 258.422C422.159 258.755 422.756 257.768 422.078 257.435Z" fill="#FA4E76"/>
<path d="M462.15 206.788C460.001 206.824 457.868 207.168 455.82 207.809C455.671 207.852 455.544 207.95 455.468 208.083C455.391 208.216 455.371 208.373 455.411 208.521C455.716 209.556 456.237 210.517 456.943 211.343C457.648 212.169 458.521 212.842 459.506 213.318C460.173 213.639 460.769 212.652 460.091 212.331C458.555 211.597 457.363 210.316 456.756 208.75C458.511 208.252 460.324 207.982 462.15 207.947C462.307 207.947 462.457 207.886 462.568 207.777C462.679 207.668 462.741 207.521 462.741 207.367C462.741 207.214 462.679 207.066 462.568 206.957C462.457 206.849 462.307 206.788 462.15 206.788V206.788Z" fill="#F2F2F2"/>
<path d="M234 67.4135V67.138C234 64.1196 237.838 62.2374 240.903 63.7524L284.076 87.3372C284.8 87.68 285.493 88.0831 286.147 88.5423V88.5423C289.189 91.0212 285.948 97.081 280.156 94.4299L236.34 70.8565C235.657 70.56 235.074 70.0787 234.659 69.4689C234.245 68.8592 234.016 68.1462 234 67.4135Z" fill="#031E28"/>
<path d="M279.185 135.253C281.327 151.986 273.452 166.562 261.635 167.812C249.818 169.063 238.458 156.519 236.317 139.798C234.176 123.076 242.05 108.489 253.867 107.238C265.684 105.987 277.044 118.531 279.185 135.253Z" fill="#79C83B"/>
<path d="M242.869 139.384L246.344 134.013L252.58 143.344L266.456 122.33L271.943 126.737L253.13 154.74L242.869 139.384Z" fill="white"/>
<path opacity="0.48" d="M370.609 235.583L329.355 255.231C335.423 259.21 341.831 262.666 348.508 265.56L390.534 238.073" fill="url(#paint2_linear_60_3)"/>
<path d="M366.678 198.18C366.573 198.079 366.489 197.958 366.432 197.824C364.666 196.952 362.922 196.126 361.062 195.357C360.5 194.944 359.892 194.565 359.354 194.209C359.256 194.313 359.136 194.395 359.003 194.448C358.87 194.502 358.726 194.526 358.582 194.519C355.936 194.449 353.302 194.157 350.708 193.647C350.59 193.865 350.5 194.096 350.438 194.335C352.787 197.013 354.373 200.252 355.037 203.723C355.54 204.286 356.078 204.871 356.663 205.491C359.272 206.501 362.817 206.283 365.789 206.639C365.929 206.344 366.038 206.036 366.117 205.72H366.245C367.245 206.079 368.218 206.505 369.158 206.994C371.111 207.265 372.962 208.015 374.54 209.175C374.973 209.012 375.37 208.771 375.71 208.463C372.657 205.135 369.989 201.382 366.678 198.18Z" fill="#1B896C"/>
<path d="M381.783 200.957L389.107 195.299C389.107 195.299 398.993 192.224 398.853 181.814C398.713 171.405 395.542 168.616 395.542 168.616C395.542 168.616 383.222 186.772 381.783 200.957Z" fill="#1B896C"/>
<path d="M366.315 220.721L370.059 237.855C370.183 238.425 370.438 238.959 370.802 239.418C371.167 239.877 371.633 240.249 372.165 240.507C374.341 241.551 378.834 242.641 387.375 241.126C388.143 240.99 388.853 240.634 389.415 240.103C389.977 239.572 390.367 238.89 390.534 238.142L394.372 220.721" fill="#68E1FD"/>
<path d="M380.343 226.356C388.091 226.356 394.372 223.833 394.372 220.721C394.372 217.608 388.091 215.085 380.343 215.085C372.596 215.085 366.315 217.608 366.315 220.721C366.315 223.833 372.596 226.356 380.343 226.356Z" fill="#56403D"/>
<path d="M399.637 178.302C399.309 174.159 396.525 170.452 396.946 166.275C397.028 165.494 395.94 165.368 395.565 165.907C388.289 176.398 383.573 188.391 381.783 200.957C381.695 201.111 381.666 201.29 381.701 201.462C380.935 207.069 380.759 212.738 381.174 218.379C381.667 218.336 382.155 218.259 382.637 218.15C382.244 212.614 382.429 207.053 383.187 201.554C385.679 198.651 389.212 197.273 392.219 194.967C394.774 193.018 396.787 190.468 398.069 187.553C399.347 184.639 399.885 181.465 399.637 178.302V178.302ZM396.63 186.967C395.053 190.44 392.416 193.348 389.084 195.288C387.691 196.149 386.311 196.964 385.024 197.893C387.703 192.754 390.017 187.439 391.95 181.986C392.266 181.103 390.78 180.724 390.523 181.596C388.709 186.747 386.547 191.773 384.053 196.642C386.068 186.674 389.969 177.164 395.554 168.604C395.916 170.957 397.051 173.08 397.683 175.49C398.635 179.325 398.265 183.361 396.63 186.967V186.967Z" fill="#37B596"/>
<path d="M380.461 218.414C379.291 215.453 378.121 212.457 376.763 209.6C376.781 209.467 376.763 209.332 376.709 209.209C376.656 209.085 376.569 208.979 376.459 208.899C374.737 205.37 372.401 202.163 369.556 199.42C363.964 194.221 356.686 192.958 349.268 192.12C348.52 192.04 348.379 192.924 348.812 193.348C348.833 193.436 348.872 193.519 348.926 193.592C348.981 193.665 349.049 193.726 349.128 193.773C353.527 196.447 352.24 203.253 356.897 205.766C359.085 206.914 361.741 206.593 364.127 206.684C367.295 206.723 370.418 207.423 373.289 208.739C375.794 211.447 377.537 214.751 378.343 218.322C379.045 218.411 379.753 218.442 380.461 218.414V218.414ZM360.173 198.639C359.272 198.318 358.886 199.718 359.775 200.039C363.7 201.411 367.342 203.464 370.527 206.099C369.758 205.884 368.977 205.712 368.187 205.583C365.087 205.089 360.325 206.042 357.587 204.435C353.761 202.254 354.077 196.929 351.351 193.75C358.008 194.622 364.338 196.183 369.24 201.13C371.006 202.944 372.538 204.964 373.803 207.143C369.999 203.304 365.331 200.391 360.173 198.639V198.639Z" fill="#37B596"/>
<path d="M62.6653 164.083V220.502C62.6658 221.351 62.8953 222.185 63.3307 222.919C63.7661 223.653 64.3917 224.26 65.1441 224.68C65.8964 225.1 66.7486 225.316 67.614 225.308C68.4795 225.3 69.3273 225.068 70.0714 224.634L155.423 174.79C156.143 174.358 156.736 173.75 157.146 173.026C157.556 172.302 157.768 171.487 157.763 170.659V113.194C157.761 112.35 157.532 111.52 157.099 110.79C156.666 110.059 156.045 109.454 155.298 109.033C154.551 108.613 153.704 108.394 152.842 108.397C151.981 108.4 151.136 108.626 150.392 109.051L66.7954 157.013C65.5374 157.735 64.4941 158.767 63.7695 160.008C63.0448 161.248 62.6641 162.653 62.6653 164.083Z" fill="#054F70"/>
<path d="M66.3274 165.483V221.903C66.3323 222.747 66.564 223.576 66.999 224.304C67.434 225.033 68.057 225.637 68.8054 226.055C69.5538 226.472 70.4011 226.689 71.2621 226.684C72.1231 226.678 72.9674 226.45 73.7101 226.023L159.12 176.179C159.84 175.746 160.433 175.139 160.843 174.415C161.253 173.691 161.466 172.875 161.46 172.047V114.595C161.458 113.75 161.229 112.92 160.796 112.19C160.364 111.459 159.742 110.854 158.995 110.434C158.248 110.014 157.401 109.794 156.54 109.797C155.678 109.8 154.833 110.026 154.089 110.451L70.4692 158.413C69.209 159.133 68.1634 160.165 67.4367 161.406C66.7099 162.646 66.3274 164.052 66.3274 165.483V165.483Z" fill="#68E1FD"/>
<path d="M154.763 169.033C156.576 164.522 155.516 159.887 152.396 158.681C149.276 157.475 145.277 160.154 143.464 164.665C141.652 169.176 142.712 173.811 145.832 175.017C148.952 176.224 152.951 173.544 154.763 169.033Z" fill="#FBF472"/>
<path d="M146.1 173.783C147.912 169.271 146.852 164.636 143.732 163.43C140.612 162.224 136.613 164.903 134.801 169.415C132.988 173.926 134.048 178.561 137.168 179.767C140.289 180.973 144.287 178.294 146.1 173.783Z" fill="#E2347C"/>
<path d="M76.9744 161.982C78.0508 161.385 78.7762 161.695 79.0102 162.832L78.1912 163.578C77.9806 162.935 77.5711 162.786 77.0212 163.118C76.5759 163.393 76.2253 163.793 76.015 164.266C75.7388 164.856 75.5989 165.499 75.6055 166.148C75.539 166.665 75.6772 167.187 75.9916 167.606C76.1345 167.718 76.3119 167.778 76.4947 167.778C76.6774 167.778 76.8548 167.718 76.9978 167.606C77.3097 167.397 77.5746 167.126 77.7758 166.813C77.9771 166.499 78.1105 166.148 78.1678 165.781L78.9868 165.597C78.9047 166.238 78.6784 166.852 78.3242 167.396C77.9701 167.94 77.497 168.4 76.9393 168.742C76.7002 168.915 76.4112 169.008 76.1144 169.008C75.8176 169.008 75.5286 168.915 75.2896 168.742C75.026 168.46 74.8294 168.125 74.7141 167.76C74.5988 167.395 74.5675 167.009 74.6227 166.63C74.6128 165.637 74.8497 164.656 75.313 163.773C75.6823 163.033 76.2586 162.412 76.9744 161.982V161.982Z" fill="white"/>
<path d="M82.1808 162.786L83.5263 164.966L82.5084 165.54L81.198 163.428L80.7183 163.692V166.539L79.8057 167.055V160.456L81.5958 159.457C82.5552 158.918 83.0934 159.366 83.0817 160.502C83.0992 161.35 82.7755 162.17 82.1808 162.786ZM81.6075 162.074C81.7968 161.967 81.9519 161.811 82.0553 161.622C82.1587 161.434 82.2062 161.22 82.1925 161.007C82.1925 160.509 82.0014 160.368 81.6192 160.582L80.73 161.076V162.568L81.6192 162.074" fill="white"/>
<path d="M87.247 156.301V157.437L85.1176 158.631L85.1059 160.008L86.8141 159.056V160.192L85.1059 161.144L85.0942 162.958L87.2938 161.73V162.866L84.1699 164.61L84.205 158.011L87.247 156.301Z" fill="white"/>
<path d="M89.704 154.936C90.874 154.293 92.044 154.649 91.9738 156.955C92.0163 157.853 91.8235 158.746 91.4138 159.55C91.0042 160.354 90.3913 161.041 89.6338 161.546L88.1011 162.407V155.808L89.704 154.936ZM90.4996 159.526C90.8807 158.908 91.0717 158.194 91.0495 157.472C91.0495 156.646 90.8506 156.152 90.5113 156.037C90.323 155.986 90.1252 155.976 89.9328 156.01C89.7403 156.044 89.5581 156.12 89.3998 156.232L89.0605 156.428V160.766L89.3998 160.571C89.8715 160.322 90.2733 159.964 90.5698 159.526" fill="white"/>
<path d="M93.7287 152.675L93.6936 159.274L92.7927 159.79L92.8278 153.18L93.7287 152.675Z" fill="white"/>
<path d="M98.1748 150.184L98.1631 151.32L96.7942 152.089L96.7708 157.552L95.8582 158.069L95.8816 152.594L94.5127 153.363L94.5244 152.227L98.1748 150.184Z" fill="white"/>
<path d="M102.632 147.613C103.709 147.017 104.434 147.326 104.668 148.463L103.849 149.209C103.639 148.566 103.229 148.417 102.679 148.75C102.233 149.023 101.882 149.423 101.673 149.897C101.394 150.486 101.254 151.13 101.263 151.779C101.192 152.296 101.331 152.82 101.65 153.237C101.791 153.348 101.966 153.408 102.147 153.408C102.328 153.408 102.503 153.348 102.644 153.237C102.956 153.028 103.221 152.758 103.422 152.444C103.623 152.13 103.757 151.779 103.814 151.412L104.633 151.229C104.551 151.869 104.325 152.483 103.97 153.027C103.616 153.571 103.143 154.031 102.586 154.373C102.346 154.546 102.057 154.639 101.761 154.639C101.464 154.639 101.175 154.546 100.936 154.373C100.672 154.092 100.476 153.756 100.36 153.391C100.245 153.026 100.214 152.64 100.269 152.261C100.259 151.268 100.496 150.287 100.959 149.404C101.332 148.663 101.912 148.042 102.632 147.613V147.613Z" fill="white"/>
<path d="M107.5 144.962L109.126 150.632L108.143 151.183L107.781 149.828L106.224 150.701L105.862 152.457L104.879 153.007L106.587 145.456L107.5 144.962ZM106.47 149.427L107.511 148.841L106.997 146.844L106.47 149.427Z" fill="white"/>
<path d="M112.133 146.007L113.49 148.199L112.461 148.772L111.15 146.661L110.67 146.925V149.771L109.758 150.276V143.677L111.548 142.678C112.507 142.139 113.046 142.586 113.034 143.723C113.05 144.57 112.727 145.39 112.133 146.007ZM111.56 145.295C111.749 145.188 111.904 145.032 112.007 144.843C112.111 144.655 112.158 144.441 112.145 144.228C112.145 143.73 111.954 143.589 111.571 143.803L110.682 144.297V145.789L111.571 145.295" fill="white"/>
<path d="M115.713 140.371C116.883 139.729 118.053 140.085 117.983 142.391C118.025 143.289 117.832 144.182 117.423 144.986C117.013 145.79 116.4 146.477 115.643 146.982L114.098 147.843V141.244L115.713 140.371ZM116.509 144.962C116.89 144.344 117.081 143.63 117.058 142.908C117.058 142.082 116.86 141.588 116.52 141.473C116.332 141.422 116.134 141.412 115.942 141.446C115.749 141.48 115.567 141.556 115.409 141.668L115.069 141.863V146.202L115.409 146.007C115.88 145.758 116.282 145.399 116.579 144.962" fill="white"/>
<path d="M76.4946 179.416V189.963C76.4951 190.406 76.6141 190.841 76.8396 191.226C77.0651 191.61 77.3894 191.929 77.78 192.152C78.1706 192.375 78.614 192.494 79.0659 192.496C79.5178 192.499 79.9625 192.385 80.3556 192.166L95.355 183.754C95.7502 183.531 96.0785 183.21 96.3066 182.823C96.5346 182.436 96.6544 181.997 96.6537 181.55V170.785C96.6515 170.34 96.5301 169.904 96.3016 169.52C96.0732 169.136 95.7459 168.817 95.3524 168.596C94.9589 168.375 94.5131 168.26 94.0597 168.261C93.6064 168.263 93.1614 168.381 92.7693 168.604L77.7699 177.235C77.3825 177.458 77.0611 177.777 76.8375 178.159C76.6139 178.542 76.4957 178.975 76.4946 179.416V179.416Z" fill="#D1D1F5"/>
<path d="M102.586 170.521L102.937 170.326L102.492 176.914L101.696 177.384L102.024 172.438L101.135 173.689L101.217 172.403L102.586 170.521Z" fill="white"/>
<path d="M105.078 168.995L105.183 168.926C106.002 168.444 106.435 168.926 106.353 170.073C106.302 170.688 106.144 171.29 105.885 171.852L104.715 174.584L106.26 173.666L106.189 174.813L103.358 176.443V175.972L105.125 172.013C105.343 171.577 105.481 171.107 105.534 170.624C105.534 170.085 105.405 169.867 105.054 170.073C104.884 170.217 104.745 170.393 104.645 170.59C104.544 170.787 104.485 171.001 104.469 171.221L103.756 171.451C103.815 170.926 103.982 170.418 104.247 169.959C104.446 169.58 104.73 169.25 105.078 168.995V168.995Z" fill="white"/>
<path d="M107.523 167.629L109.98 166.114V166.527L108.81 169.247L108.985 169.121C109.664 168.719 110.027 169.27 109.945 170.441C109.907 171.094 109.728 171.732 109.418 172.311C109.194 172.765 108.861 173.159 108.447 173.459L108.319 173.539C107.921 173.78 107.593 173.803 107.347 173.608C107.204 173.455 107.097 173.273 107.034 173.075C106.971 172.876 106.955 172.666 106.985 172.461L107.757 171.864C107.815 172.449 108.026 172.621 108.4 172.403C108.619 172.222 108.796 171.998 108.919 171.744C109.042 171.491 109.108 171.215 109.114 170.934C109.114 170.188 108.915 169.936 108.494 170.188C108.363 170.28 108.249 170.393 108.155 170.521L107.886 170.039L108.833 167.847L107.429 168.662L107.523 167.629Z" fill="white"/>
<path d="M113.303 168.34L113.794 168.053L113.724 169.201L113.233 169.488L113.151 170.705L112.367 171.152L112.449 169.936L110.565 171.083V170.487L112.741 164.633L113.572 164.14L113.303 168.34ZM112.519 168.799L112.683 166.286L111.583 169.35L112.519 168.799Z" fill="white"/>
<path d="M118.732 165.15L119.223 164.863L119.153 166.011L118.661 166.298L118.58 167.526L117.784 167.985L117.866 166.757L115.97 167.904V167.308L118.147 161.454L118.977 160.961L118.732 165.15ZM117.936 165.62L118.1 163.107L117 166.114L117.924 165.563" fill="white"/>
<path d="M120.615 159.951L122.873 158.62L122.803 159.767L121.189 160.708L120.99 162.143C121.144 161.926 121.333 161.736 121.551 161.581H121.633C122.522 161.064 122.92 161.581 122.803 162.981C122.763 163.632 122.588 164.269 122.288 164.851C122.068 165.308 121.734 165.702 121.317 165.999L121.2 166.08C121.072 166.182 120.915 166.244 120.751 166.258C120.586 166.272 120.421 166.238 120.276 166.16C120.143 166.019 120.042 165.852 119.982 165.67C119.921 165.488 119.902 165.294 119.925 165.104L120.686 164.461C120.686 165.024 120.931 165.196 121.282 164.989H121.341C121.56 164.801 121.734 164.568 121.849 164.306C121.964 164.044 122.019 163.76 122.008 163.474C122.008 162.728 121.844 162.487 121.388 162.751H121.317C120.986 163.017 120.728 163.36 120.569 163.75L120.077 163.887L120.615 159.951Z" fill="white"/>
<path d="M126.196 159.526C126.336 159.71 126.435 159.92 126.487 160.143C126.54 160.367 126.544 160.598 126.5 160.823C126.454 161.446 126.274 162.052 125.974 162.602C125.747 163.054 125.414 163.447 125.003 163.75L124.886 163.83C124.476 164.071 124.137 164.071 123.879 163.83C123.735 163.651 123.632 163.443 123.577 163.221C123.523 163 123.518 162.769 123.564 162.545C123.599 162.105 123.698 161.672 123.856 161.259L125.365 157.07L126.243 156.554L125.073 159.561H125.167C125.635 159.228 125.95 159.228 126.196 159.526ZM125.705 161.294C125.705 160.639 125.494 160.398 125.096 160.639H125.038C124.827 160.813 124.656 161.029 124.537 161.272C124.418 161.516 124.353 161.781 124.348 162.051C124.348 162.682 124.57 162.935 124.956 162.705C125.168 162.529 125.34 162.312 125.46 162.067C125.581 161.822 125.649 161.554 125.658 161.282" fill="white"/>
<path d="M127.308 156.014L129.964 154.453L129.929 154.947L127.869 162.028L127.085 162.476L128.957 156.106L127.226 157.105L127.308 156.014Z" fill="white"/>
<path d="M134.176 154.901C134.55 155.004 134.702 155.418 134.655 156.141C134.622 156.749 134.446 157.343 134.141 157.874C133.921 158.298 133.605 158.667 133.216 158.952L133.088 159.033C132.946 159.137 132.773 159.193 132.596 159.193C132.419 159.193 132.247 159.137 132.105 159.033C131.96 158.863 131.856 158.664 131.801 158.449C131.746 158.234 131.742 158.01 131.789 157.793C131.823 157.104 132.059 156.439 132.467 155.877C132.21 155.716 132.105 155.36 132.152 154.798C132.189 154.28 132.336 153.776 132.584 153.317C132.782 152.921 133.075 152.578 133.439 152.319L133.532 152.261C133.907 152.055 134.199 152.043 134.398 152.261C134.518 152.41 134.605 152.582 134.651 152.766C134.698 152.95 134.703 153.142 134.667 153.329C134.635 153.884 134.467 154.424 134.176 154.901V154.901ZM133.86 156.611C133.88 156.509 133.878 156.405 133.853 156.304C133.829 156.203 133.784 156.108 133.719 156.026C133.614 155.934 133.462 155.923 133.286 156.026C133.104 156.154 132.956 156.323 132.854 156.519C132.721 156.768 132.646 157.042 132.631 157.323C132.609 157.425 132.608 157.532 132.631 157.635C132.653 157.737 132.697 157.835 132.76 157.919C132.865 158.011 133.017 158.011 133.205 157.919H133.263C133.44 157.793 133.584 157.628 133.684 157.437C133.813 157.191 133.889 156.922 133.907 156.646M133.988 153.822C133.988 153.329 133.836 153.122 133.509 153.317C133.339 153.458 133.203 153.634 133.11 153.832C133.017 154.031 132.969 154.247 132.971 154.465C132.971 154.97 133.123 155.188 133.439 155.004C133.608 154.862 133.745 154.687 133.84 154.489C133.935 154.291 133.985 154.075 133.988 153.857" fill="white"/>
<path d="M138.06 150.219C138.203 150.399 138.304 150.606 138.359 150.828C138.413 151.05 138.419 151.28 138.376 151.504C138.345 151.944 138.246 152.378 138.083 152.789L136.586 156.932L135.697 157.46L136.867 154.454H136.773C136.363 154.695 136.036 154.695 135.79 154.454C135.652 154.264 135.555 154.05 135.502 153.824C135.45 153.597 135.444 153.362 135.486 153.134C135.53 152.507 135.709 151.897 136.012 151.343C136.238 150.89 136.571 150.496 136.984 150.196L137.101 150.115C137.249 150.023 137.424 149.983 137.599 150.002C137.773 150.021 137.936 150.097 138.06 150.219ZM137.592 151.963C137.592 151.332 137.37 151.079 136.984 151.309C136.774 151.486 136.605 151.705 136.486 151.949C136.368 152.194 136.302 152.461 136.293 152.732C136.293 153.386 136.504 153.627 136.902 153.386H136.96C137.172 153.214 137.344 152.998 137.463 152.755C137.582 152.511 137.646 152.245 137.65 151.975" fill="white"/>
<path d="M139.125 149.082L141.781 147.522L141.745 148.004L139.686 155.073L138.902 155.532L140.774 149.151L139.043 150.173L139.125 149.082Z" fill="white"/>
<path d="M144.776 146.271C144.922 146.449 145.027 146.656 145.083 146.878C145.14 147.1 145.147 147.331 145.103 147.556C145.069 147.996 144.971 148.429 144.811 148.841L143.302 153.03L142.424 153.547L143.594 150.54H143.5C143.091 150.792 142.763 150.792 142.518 150.54C142.379 150.351 142.28 150.137 142.228 149.911C142.175 149.684 142.171 149.449 142.213 149.22C142.259 148.594 142.438 147.984 142.74 147.43C142.965 146.977 143.298 146.583 143.711 146.282L143.84 146.202C144.191 146.018 144.53 146.03 144.776 146.271ZM144.308 148.026C144.308 147.395 144.085 147.143 143.699 147.372C143.491 147.548 143.322 147.764 143.203 148.007C143.085 148.25 143.018 148.515 143.009 148.784C143.009 149.427 143.22 149.668 143.617 149.438H143.676C143.887 149.265 144.058 149.049 144.177 148.806C144.296 148.562 144.36 148.296 144.366 148.026" fill="white"/>
<path d="M91.9737 196.814L90.7335 200.544L92.0205 203.081L91.1079 203.7L90.2538 201.99L89.2827 204.94L88.3701 205.548L89.8443 201.153L88.7445 198.995L89.6337 198.398L90.3123 199.718L91.0845 197.411L91.9737 196.814Z" fill="white"/>
<path d="M88.2413 199.339L87.0011 203.081L88.2881 205.617L87.3755 206.225L86.5214 204.527L85.5503 207.465L84.6377 208.085L86.1119 203.677L85.0121 201.531L85.9013 200.923L86.5799 202.243L87.3404 199.948L88.2413 199.339Z" fill="white"/>
<path d="M95.7059 194.278L94.4657 198.019L95.7527 200.544L94.8518 201.164L93.9977 199.466L93.0266 202.404L92.1023 203.023L93.5765 198.616L92.4767 196.47L93.3776 195.862L94.0562 197.182L94.8167 194.886L95.7059 194.278Z" fill="white"/>
<path d="M101.006 190.686L99.766 194.427L101.053 196.964L100.14 197.572L99.2863 195.873L98.3152 198.811L97.4026 199.431L98.8651 195.035L97.777 192.878L98.6662 192.27L99.3448 193.589L100.105 191.294L101.006 190.686Z" fill="white"/>
<path d="M104.738 188.161L103.498 191.891L104.785 194.427L103.873 195.047L103.018 193.337L102.047 196.286L101.146 196.895L102.609 192.499L101.509 190.341L102.41 189.745L103.077 191.064L103.837 188.769L104.738 188.161Z" fill="white"/>
<path d="M108.471 185.624L107.231 189.366L108.518 191.902L107.605 192.511L106.751 190.812L105.78 193.75L104.879 194.37L106.341 189.963L105.242 187.817L106.143 187.208L106.809 188.528L107.582 186.233L108.471 185.624Z" fill="white"/>
<path d="M300.012 23.8016C302.588 25.5435 304.671 27.8993 306.065 30.6476C307.459 33.396 308.117 36.4467 307.979 39.5134C307.476 54.0659 304.2 56.8548 304.2 56.8548L281.701 43.2319L246.402 21.0242C246.402 21.0242 275.219 14.1037 300.012 23.8016Z" fill="#666666"/>
<path d="M275.734 92.0427L236.644 71.0631C236.644 71.0631 237.194 33.8438 252.229 11.1198C253.592 9.12235 255.644 7.67444 258.009 7.04195C260.373 6.40947 262.89 6.63486 265.099 7.67674L300.012 23.8016C300.012 23.8016 286.556 16.1237 275.734 92.0427Z" fill="#E6E6E6"/>
<path d="M280.04 32.7535L254.955 19.2109C252.977 18.1436 251.199 21.1161 253.188 22.1834L278.273 35.6801C280.25 36.7475 282.029 33.775 280.04 32.7076V32.7535Z" fill="#999999"/>
<path d="M276.53 39.5019L251.445 26.0052C249.467 24.9378 247.689 27.9103 249.678 28.9777L274.763 42.4744C276.74 43.5417 278.519 40.5692 276.53 39.5019V39.5019Z" fill="#999999"/>
<path d="M271.37 56.3039L246.285 42.8072C244.308 41.7399 242.529 44.7124 244.518 45.7797L269.603 59.2764C271.58 60.3438 273.359 57.3713 271.37 56.3039V56.3039Z" fill="#999999"/>
<path d="M269.217 64.5213L244.132 51.0246C242.155 49.9573 240.377 52.9297 242.366 53.9971L267.45 67.4938C269.428 68.5611 271.206 65.5887 269.217 64.5213V64.5213Z" fill="#999999"/>
<path d="M269.217 73.4503L244.132 59.9535C242.155 58.8862 240.377 61.8587 242.366 62.926L267.45 76.4228C269.428 77.4901 271.206 74.5176 269.217 73.4503V73.4503Z" fill="#999999"/>
<path d="M288.885 47.352L291.517 46.1011V48.7637L294.185 47.88V50.3819L297.309 49.3605V52.2756L300.058 51.1738L300.327 54.1004L302.55 52.8494L302.901 55.6612L305.136 54.1004V57.0155L307.628 55.4661L307.862 58.6681H304.598" fill="white"/>
<path d="M200.07 108.604C200.793 106.704 201.418 104.77 201.942 102.808C202.176 101.419 200.772 96.1399 201.755 95.8415C202.738 95.5431 203.966 99.1239 203.966 99.1239C203.966 99.1239 206.891 92.6509 207.687 92.3411C208.482 92.0312 210.857 91.8246 211.431 92.4099C212.004 92.9952 213.584 96.7711 212.882 98.0565C211.362 100.348 209.714 102.555 207.944 104.667C207.687 104.862 204.61 111.358 204.2 111.553C203.791 111.748 200.398 110.061 200.07 108.604Z" fill="#FFC9B5"/>
<path d="M168 129.549C168 129.549 184.076 123.317 186.872 121.056C189.669 118.795 199.742 107.146 199.742 107.146C199.742 107.146 205.592 109.246 205.522 112.127C205.522 112.127 197.332 125.543 193.53 129.136C189.727 132.728 175.851 141.76 172.809 141.554C169.767 141.347 168 129.549 168 129.549Z" fill="#C93535"/>
<path d="M178.261 257.182C178.261 257.182 182.099 253.969 186.451 255.208C190.804 256.448 189.868 259.615 187.153 261.601C184.439 263.586 173.991 270.484 170.773 270.415C167.556 270.346 166.854 267.81 166.783 266.065C166.962 263.374 167.278 260.692 167.731 258.032" fill="#2C1D1A"/>
<path d="M175.863 256.953C175.879 257.071 175.921 257.183 175.987 257.283C176.053 257.383 176.14 257.467 176.243 257.53C176.346 257.592 176.462 257.632 176.582 257.645C176.703 257.658 176.824 257.645 176.939 257.607C178.106 257.244 179.251 256.815 180.367 256.322C180.367 256.322 184.076 256.322 181.818 259.96C179.56 263.598 171.779 264.665 169.381 263.311C166.982 261.957 168.585 258.1 168.585 258.1" fill="#2C1D1A"/>
<path d="M187.294 264.275C187.294 264.275 191.131 261.061 195.484 262.301C199.836 263.54 198.9 266.708 196.186 268.694C193.471 270.679 183.023 277.577 179.806 277.508C176.588 277.439 175.886 274.902 175.816 273.158C175.994 270.466 176.311 267.785 176.764 265.124" fill="#2C1D1A"/>
<path d="M184.86 264.057C184.876 264.175 184.918 264.287 184.984 264.387C185.05 264.487 185.138 264.571 185.24 264.634C185.343 264.696 185.459 264.736 185.58 264.749C185.7 264.762 185.822 264.749 185.936 264.711C187.104 264.349 188.248 263.919 189.364 263.426C189.364 263.426 193.073 263.426 190.815 267.064C188.557 270.702 180.777 271.769 178.378 270.415C175.98 269.061 177.583 265.205 177.583 265.205" fill="#FFC9B5"/>
<path d="M188.932 165.047C190.183 167.824 190.862 207.591 190.382 217.84C189.903 228.089 184.86 264.057 184.86 264.057C184.86 264.057 182.017 268.292 177.22 267.993C172.423 267.695 173.359 263.908 173.359 263.908C173.359 263.908 167.228 266.697 164.549 260.568C163.554 258.273 158.886 194.909 158.886 187.69C159.046 179.064 161.463 170.622 165.906 163.176" fill="#2C1D1A"/>
<path d="M173.394 263.896C173.394 263.896 170.481 183.559 170.855 181.183C171.229 178.807 170.059 198.8 170.141 204.263C170.188 208.165 172.61 258.433 173.394 263.896Z" fill="#6D5854"/>
<path d="M188.932 165.047C188.932 165.047 193.167 136.596 187.142 131.224C181.116 125.853 164.373 122.043 161.25 124.717C158.126 127.391 162.817 157.564 165.93 163.164C169.042 168.765 186.709 167.262 188.932 165.047Z" fill="#EA5353"/>
<path d="M181.35 110.302C181.49 110.704 184.462 121.779 179.279 123.386C174.096 124.993 173.055 118.921 172.54 118.577C172.025 118.233 170.399 117.693 170.481 116.465C170.563 115.237 172.528 115.214 172.528 115.214C172.528 115.214 173.289 112.001 175.617 110.624C177.945 109.246 181.35 110.302 181.35 110.302Z" fill="#FFC9B5"/>
<path d="M176.471 113.424C176.471 113.424 180.8 113.493 182.672 111.679C183.023 111.325 183.294 110.903 183.47 110.441C183.646 109.978 183.722 109.484 183.693 108.992C183.665 108.499 183.532 108.017 183.304 107.577C183.076 107.137 182.757 106.748 182.368 106.435C182.368 106.435 184.088 103.072 180.859 102.257C180.859 102.257 180.566 99.1698 174.131 100.581C167.696 101.993 161.811 106.435 161.729 112.173C161.647 117.911 161.214 118.611 159.132 119.931C157.049 121.251 157.622 126.312 163.192 126.519C168.761 126.726 176.354 126.244 177.068 123.546C177.782 120.849 173.558 120.563 173.031 117.808C172.902 116.78 173.19 115.744 173.834 114.923C174.478 114.103 175.425 113.564 176.471 113.424V113.424Z" fill="#2C1D1A"/>
<path d="M197.297 160.949C197.297 160.949 201.755 165.609 203.042 166.114C205.012 166.998 206.906 168.038 208.705 169.224C208.107 169.749 207.577 170.342 207.125 170.992C207.124 171.015 207.124 171.037 207.125 171.06C206.552 170.659 206.154 170.36 206.166 170.567C206.166 171.221 210.553 176.822 211.22 177.671C211.887 178.52 210.05 181.298 210.05 181.298C207.219 182.227 203.954 179.416 201.86 177.51C199.766 175.605 198.795 171.198 198.069 170.624C197.344 170.05 191.365 166.183 190.944 164.978C190.523 163.773 197.297 160.949 197.297 160.949Z" fill="#FFC9B5"/>
<path d="M188.522 133.256C189.692 135.792 189.692 138.57 190.183 141.29C190.57 143.229 190.967 145.261 191.424 147.223C191.735 149.224 192.375 151.162 193.319 152.962C194.957 155.636 197.086 157.954 198.947 160.467C199.464 161.014 199.837 161.676 200.035 162.395C200.21 164.151 197.952 169.155 191.693 168.536C188.529 166.028 185.572 163.28 182.848 160.318C179.338 156.267 176.015 142.564 176.354 138.007C176.588 134.909 178.308 131.443 181.303 130.088C182.296 129.691 183.39 129.603 184.436 129.835C185.482 130.067 186.43 130.608 187.153 131.385C187.713 131.929 188.176 132.561 188.522 133.256V133.256Z" fill="#EA5353"/>
<path d="M188.171 165.529C188.171 165.529 182.941 161.167 181.654 158.539C180.367 155.911 178.694 151.183 178.694 151.183C178.694 151.183 181.116 164.851 183.433 166.676C185.044 166.436 186.63 166.052 188.171 165.529Z" fill="#2C1D1A"/>
<path opacity="0.48" d="M241.863 237.534L236.422 229.397L229.32 226.711L218.427 231.887L131.847 280.584L161.46 297.466C170.317 291.991 233.181 243.295 241.863 237.534Z" fill="url(#paint3_linear_60_3)"/>
<path d="M211.103 167.365C200.386 168.157 200.948 186.875 200.222 194.576C200.035 196.527 202.82 197.17 203.007 195.219C203.615 188.769 203.206 180.024 206.517 174.343C207.546 172.587 208.775 170.9 210.881 170.705C211.541 170.682 212.198 170.804 212.805 171.06C213.412 171.315 213.953 171.7 214.391 172.185C215.327 173.103 215.83 176.707 215.994 177.786C216.551 181.792 216.613 185.85 216.181 189.871C215.994 191.822 218.778 192.465 218.966 190.514C219.562 184.396 220.65 166.653 211.103 167.365Z" fill="#8CCC00"/>
<path d="M227.132 179.898L230.35 185.682L236.796 187.128L231.964 205.066L218.263 195.517" fill="#DD842A"/>
<path d="M194.091 199.569L227.132 179.898L226.056 209.117L200.807 211.723L194.091 199.569Z" fill="#C13D3D"/>
<path d="M205.908 203.907L211.009 259.168L241.897 239.21L236.796 187.128L205.908 203.907Z" fill="#68E1FD"/>
<path d="M205.908 203.907L202.422 199.569H194.091L190.605 247.886L199.567 252.339L211.01 259.168L205.908 203.907Z" fill="#68E1FD"/>
<path opacity="0.14" d="M205.908 203.907L202.422 199.569H194.091L190.605 247.886L199.567 252.339L211.01 259.168L205.908 203.907Z" fill="#42210B"/>
<path d="M224.897 176.604C214.157 176.707 213.677 195.38 212.531 203.069C212.238 204.997 214.988 205.835 215.28 203.884C216.239 197.48 216.321 188.723 219.96 183.226C221.446 180.988 224.067 179.106 226.641 180.575C228.981 181.883 228.981 184.821 229.203 187.277C229.538 191.306 229.377 195.36 228.723 199.351C228.431 201.279 231.169 202.117 231.473 200.166C232.397 194.152 234.468 176.512 224.897 176.604Z" fill="#8CCC00"/>
<defs>
<linearGradient id="paint0_linear_60_3" x1="54.5571" y1="230.522" x2="92.189" y2="202.181" gradientUnits="userSpaceOnUse">
<stop offset="0.01" stop-color="#2E3192" stop-opacity="0"/>
<stop offset="1" stop-color="#666666"/>
</linearGradient>
<linearGradient id="paint1_linear_60_3" x1="229.601" y1="239.049" x2="265.505" y2="187.371" gradientUnits="userSpaceOnUse">
<stop offset="0.01" stop-color="#2E3192" stop-opacity="0"/>
<stop offset="1" stop-color="#666666"/>
</linearGradient>
<linearGradient id="paint2_linear_60_3" x1="342.611" y1="259.248" x2="380.243" y2="230.908" gradientUnits="userSpaceOnUse">
<stop offset="0.01" stop-color="#2E3192" stop-opacity="0"/>
<stop offset="1" stop-color="#666666"/>
</linearGradient>
<linearGradient id="paint3_linear_60_3" x1="142.986" y1="295.067" x2="218.838" y2="230.323" gradientUnits="userSpaceOnUse">
<stop offset="0.01" stop-color="#2E3192" stop-opacity="0"/>
<stop offset="1" stop-color="#666666"/>
</linearGradient>
</defs>
</svg>
